<svg width="38" height="38" viewBox="0 0 38 38" fill="none" xmlns="http://www.w3.org/2000/svg">
<path d="M32.9216 9.40905H19.2118L16.4847 6.16787C16.393 6.0576 16.2555 5.99576 16.1122 6.00023H5.05118C3.36241 6.01252 2 7.38499 2 9.07376V29.0089C2.00205 30.7034 3.37526 32.0766 5.0698 32.0787H32.9216C34.6161 32.0766 35.9893 30.7034 35.9914 29.0089V12.4789C35.9893 10.7843 34.6161 9.4111 32.9216 9.40905Z" fill="url(#paint0_linear_90_19)"/>
<path d="M34.9487 7.38415H21.2351L18.5081 4.14297C18.4163 4.0327 18.2789 3.97085 18.1355 3.97532H7.07827C5.54597 3.97784 4.25025 5.10983 4.04199 6.62787H14.1269C14.6557 6.62657 15.1578 6.85997 15.4979 7.26493L17.8263 10.033H30.9214C33.3434 10.0371 35.3059 11.9996 35.31 14.4216V30.024C36.8457 29.8324 37.9986 28.5278 37.9998 26.9802V10.4502C37.9958 8.76435 36.6344 7.39644 34.9487 7.38415Z" fill="url(#paint1_linear_90_19)"/>
<defs>
<linearGradient id="paint0_linear_90_19" x1="18.9957" y1="6" x2="18.9957" y2="32.0787" gradientUnits="userSpaceOnUse">
<stop stop-color="#4863D8"/>
<stop offset="1" stop-color="#F9F6D5"/>
</linearGradient>
<linearGradient id="paint1_linear_90_19" x1="21.0209" y1="3.9751" x2="21.0209" y2="30.024" gradientUnits="userSpaceOnUse">
<stop stop-color="#4863D8"/>
<stop offset="1" stop-color="#F9F6D5"/>
</linearGradient>
</defs>
</svg>
