<svg width="23" height="17" viewBox="0 0 23 17" fill="none" xmlns="http://www.w3.org/2000/svg">
<path d="M16.3719 2.21987C13.4053 0.256527 10.3751 0.0454143 7.28128 1.92432C4.63249 3.50766 2.66179 5.78767 0.945376 8.29991C0.754663 8.57436 0.818234 8.76436 0.987757 8.99658C2.38632 11.0866 3.9544 13.0077 5.96748 14.5699C7.62032 15.8788 9.44269 16.7866 11.2439 16.8289C12.7908 16.8289 13.8715 16.5333 14.8886 16.0266C18.0883 14.4222 20.3133 11.8044 22.2416 8.89103C22.4112 8.63769 22.3052 8.44769 22.1781 8.25769C20.5676 5.91434 18.7452 3.80322 16.3719 2.21987ZM11.477 14.1266C8.53151 14.0844 6.15819 11.6355 6.20057 8.63769C6.24295 5.661 8.67984 3.29655 11.6677 3.33877C14.6343 3.38099 17.0288 5.80878 16.9864 8.80658C16.9441 11.8044 14.5072 14.1688 11.477 14.1266Z" fill="#FF5F7F"/>
<path d="M11.5832 6.04102C10.0787 6.04102 8.89207 7.20214 8.87088 8.70104C8.84969 10.221 10.0575 11.4244 11.5832 11.4244C13.0666 11.4244 14.2744 10.221 14.2532 8.72215C14.2532 7.22325 13.0878 6.04102 11.5832 6.04102Z" fill="#FF5F7F"/>
</svg>
